<svg width="20" height="20" viewBox="0 0 20 20" fill="none" xmlns="http://www.w3.org/2000/svg">
<path fill-rule="evenodd" clip-rule="evenodd" d="M13.9996 10.9992C13.4476 10.9992 12.9996 10.5512 12.9996 9.9992C12.9996 9.4472 13.4476 8.9992 13.9996 8.9992C14.5516 8.9992 14.9996 9.4472 14.9996 9.9992C14.9996 10.5512 14.5516 10.9992 13.9996 10.9992ZM9.9996 10.9992C9.4476 10.9992 8.9996 10.5512 8.9996 9.9992C8.9996 9.4472 9.4476 8.9992 9.9996 8.9992C10.5516 8.9992 10.9996 9.4472 10.9996 9.9992C10.9996 10.5512 10.5516 10.9992 9.9996 10.9992ZM5.99961 10.9992C5.44761 10.9992 4.99961 10.5512 4.99961 9.9992C4.99961 9.4472 5.44761 8.9992 5.99961 8.9992C6.55161 8.9992 6.99961 9.4472 6.99961 9.9992C6.99961 10.5512 6.55161 10.9992 5.99961 10.9992ZM17.0706 2.92817C14.7866 0.644171 11.6256 -0.374829 8.3966 0.124171C4.31961 0.760171 0.939608 4.04417 0.176608 8.1112C-0.190392 10.0692 0.0206082 12.0632 0.787608 13.8762C0.885608 14.1062 0.915608 14.3222 0.876608 14.5152L0.0196081 18.8032C-0.0463919 19.1312 0.0566081 19.4702 0.292608 19.7062C0.481608 19.8952 0.736608 19.9992 0.999608 19.9992C1.06461 19.9992 1.13061 19.9932 1.19561 19.9792L5.47861 19.1232C5.72461 19.0762 5.96361 19.1452 6.12261 19.2112C7.93661 19.9782 9.9306 20.1882 11.8876 19.8222C15.9546 19.0592 19.2386 15.6792 19.8746 11.6022C20.3776 8.3742 19.3556 5.21317 17.0706 2.92817Z" fill="#707C97"/>
</svg>
